#tb 0: 1/7
0,          0,          0,        1,   115200, 0x3744b3ed
0,          1,          1,        1,   115200, 0x0c1062d6
0,          2,          2,        1,   115200, 0x201b9db1
0,          3,          3,        1,   115200, 0x278d887e
0,          4,          4,        1,   115200, 0x309b9c06
0,          5,          5,        1,   115200, 0x75e1a17b
0,          6,          6,        1,   115200, 0xa14e9aca
0,          7,          7,        1,   115200, 0xb73857e2
0,          8,          8,        1,   115200, 0x686b77e7
0,          9,          9,        1,   115200, 0x02b6ab21
0,         10,         10,        1,   115200, 0x1fc2d693
0,         11,         11,        1,   115200, 0x296dd4a5
0,         12,         12,        1,   115200, 0x2d0ba5a4
0,         13,         13,        1,   115200, 0x59e85f83
0,         14,         14,        1,   115200, 0xc95a675e
0,         15,         15,        1,   115200, 0x40426f99
0,         16,         16,        1,   115200, 0xf040bf35
0,         17,         17,        1,   115200, 0xc705ccd9
0,         18,         18,        1,   115200, 0xa76dcd9d
0,         19,         19,        1,   115200, 0x5635daa5
0,         20,         20,        1,   115200, 0x3af5d306
0,         21,         21,        1,   115200, 0x0caf7172
0,         22,         22,        1,   115200, 0x7161ef8f
0,         23,         23,        1,   115200, 0xc8ce7fb1
0,         24,         24,        1,   115200, 0xccf02fed
0,         25,         25,        1,   115200, 0x81cdf49f
0,         26,         26,        1,   115200, 0xb9170ee1
0,         27,         27,        1,   115200, 0x7e7d78d0
0,         28,         28,        1,   115200, 0xfe4c0185
0,         29,         29,        1,   115200, 0x9dde4256
0,         30,         30,        1,   115200, 0x1eb35d69
0,         31,         31,        1,   115200, 0xad3d2e3f
0,         32,         32,        1,   115200, 0xf3282aa1
0,         33,         33,        1,   115200, 0x1cef3c17
0,         34,         34,        1,   115200, 0x688a442c
0,         35,         35,        1,   115200, 0x2cdb327a
0,         36,         36,        1,   115200, 0xe6c16f00
0,         37,         37,        1,   115200, 0x6f8fac56
0,         38,         38,        1,   115200, 0x54e8d2a1
0,         39,         39,        1,   115200, 0x29afc657
0,         40,         40,        1,   115200, 0xb3138f57
0,         41,         41,        1,   115200, 0x169041ca
0,         42,         42,        1,   115200, 0x9e3e4e2b
0,         43,         43,        1,   115200, 0x192977ac
0,         44,         44,        1,   115200, 0x4aefe354
0,         45,         45,        1,   115200, 0xc575c060
0,         46,         46,        1,   115200, 0xfe3ec033
0,         47,         47,        1,   115200, 0xab53a3e7
0,         48,         48,        1,   115200, 0xbe229fcb
0,         49,         49,        1,   115200, 0x088e58c3
0,         50,         50,        1,   115200, 0x79eaf2db
0,         51,         51,        1,   115200, 0xb32489ab
0,         52,         52,        1,   115200, 0x125d1db7
0,         53,         53,        1,   115200, 0x81efd887
0,         54,         54,        1,   115200, 0x0eb22945
0,         55,         55,        1,   115200, 0x46cca5d0
0,         56,         56,        1,   115200, 0x636c4203
0,         57,         57,        1,   115200, 0x3d3074a6
0,         58,         58,        1,   115200, 0xe92f787e
0,         59,         59,        1,   115200, 0xd0cd4ecf
0,         60,         60,        1,   115200, 0xf3ac6472
0,         61,         61,        1,   115200, 0xac8063b4
0,         62,         62,        1,   115200, 0x2b0c68f2
0,         63,         63,        1,   115200, 0xc6173b40
0,         64,         64,        1,   115200, 0x12c35e41
0,         65,         65,        1,   115200, 0x57c48fdd
0,         66,         66,        1,   115200, 0x1079be75
0,         67,         67,        1,   115200, 0xc8e7d33e
0,         68,         68,        1,   115200, 0x79cdac12
0,         69,         69,        1,   115200, 0x8dbe5a5f
